<svg xmlns="http://www.w3.org/2000/svg" viewBox="0 0 24 24">
  <g id="storm-fill">
    <path id="Union" fill="#999999" d="M14.8965 1.05438c0.5494 -0.054764 1.0397 0.3462 1.0947 0.89551 0.0548 0.54941 -0.3462 1.03973 -0.8955 1.09473 -1.8784 0.18725 -3.5861 0.95346 -4.9443 2.11621 4.6076 -1.72785 9.8727 -0.16824 12.7773 3.875 0.3218 0.44847 0.2188 1.07437 -0.2295 1.39647 -0.4483 0.3217 -1.0733 0.2185 -1.3955 -0.2295 -1.1013 -1.53282 -2.6189 -2.62876 -4.3047 -3.22361 3.7997 3.12641 5.0812 8.46501 3.0322 13.00191 -0.2273 0.5031 -0.82 0.7272 -1.3232 0.5 -0.5031 -0.2274 -0.7263 -0.82 -0.499 -1.3232 0.7766 -1.7197 0.9662 -3.5809 0.6387 -5.3379 -0.8081 4.8531 -4.7902 8.6319 -9.74321 9.126 -0.54929 0.0547 -1.03954 -0.3464 -1.09472 -0.8955 -0.05477 -0.5495 0.34615 -1.0398 0.8955 -1.0948 1.87773 -0.1872 3.58443 -0.954 4.94243 -2.1162 -4.60737 1.7269 -9.8711 0.167 -12.77543 -3.8759 -0.321634 -0.4485 -0.218827 -1.0735 0.22949 -1.3955 0.44842 -0.3217 1.07337 -0.2187 1.39551 0.2294C3.79822 15.3299 5.31482 16.4254 7 17.0202 3.20111 13.8936 1.9207 8.55479 3.96973 4.01825c0.22752 -0.50282 0.81919 -0.72614 1.32226 -0.49902 0.50331 0.22732 0.72729 0.81993 0.5 1.32324 -0.77663 1.71967 -0.96707 3.58092 -0.63965 5.33793 0.80796 -4.85349 4.79083 -8.63207 9.74416 -9.12602M12 9.99969c-1.1044 0.00002 -1.9998 0.89561 -2 2.00001 0 1.1046 0.8954 2 2 2s2 -0.8954 2 -2c-0.0002 -1.1044 -0.8955 -2.00001 -2 -2.00001"></path>
  </g>
</svg>
