<svg viewBox="0 0 64 64" fill="none" xmlns="http://www.w3.org/2000/svg">
  <g transform="translate(-4.8, -4.8) scale(1.15)">
    <path d="M32.38 28.521C31.6284 28.523 30.8943 28.7478 30.2705 29.167C29.6467 29.5862 29.1612 30.181 28.8755 30.8761C28.5897 31.5712 28.5164 32.3354 28.665 33.0722C28.8135 33.8089 29.1772 34.485 29.7101 35.0151C30.2429 35.5451 30.921 35.9052 31.6585 36.0499C32.396 36.1946 33.1598 36.1174 33.8534 35.8279C34.547 35.5385 35.1392 35.0499 35.5551 34.4239C35.971 33.7979 36.192 33.0626 36.19 32.311C36.1895 31.8118 36.0904 31.3175 35.8985 30.8566C35.7066 30.3958 35.4256 29.9773 35.0717 29.6252C34.7177 29.2731 34.2978 28.9943 33.8359 28.8048C33.374 28.6154 32.8792 28.5189 32.38 28.521Z" fill="#999999"/>
    <path d="M55.53 36.9271L51.67 33.2171C51.68 32.9071 51.69 32.6071 51.69 32.3071C51.69 32.0071 51.68 31.7071 51.67 31.3871L55.53 27.6471C56.3076 26.8975 56.811 25.9086 56.9597 24.8388C57.1084 23.7691 56.8937 22.6804 56.35 21.7471L53.5 16.7971C52.9606 15.8579 52.1209 15.1273 51.1161 14.7228C50.1113 14.3183 48.9997 14.2635 47.96 14.5671L42.81 16.0671C42.3 15.7371 41.77 15.4271 41.23 15.1471L39.92 9.94712C39.6643 8.89465 39.0615 7.95906 38.2087 7.29136C37.356 6.62366 36.3031 6.26283 35.22 6.26713H29.51C28.4264 6.26638 27.3739 6.62977 26.5215 7.29894C25.6692 7.96812 25.0664 8.90426 24.81 9.95711L23.52 15.1471C22.98 15.4271 22.45 15.7371 21.94 16.0671L16.77 14.5871C15.7319 14.2901 14.6243 14.3493 13.6237 14.7553C12.6232 15.1613 11.7875 15.8907 11.25 16.8271L8.38 21.7871C7.84427 22.7265 7.63698 23.8176 7.79092 24.888C7.94486 25.9583 8.45127 26.9468 9.23001 27.6971L13.1 31.4071C13.08 31.7171 13.07 32.0071 13.07 32.3071C13.07 32.6071 13.08 32.9271 13.1 33.2371L9.23999 36.9671C8.45974 37.7148 7.95367 38.7032 7.80313 39.7734C7.65258 40.8435 7.86633 41.9332 8.41 42.8671L11.26 47.8271C11.8003 48.7652 12.6405 49.4943 13.6454 49.8969C14.6503 50.2996 15.7614 50.3525 16.8 50.0471L21.96 48.5571C22.4695 48.8892 22.997 49.193 23.54 49.4671L24.84 54.6871C25.1011 55.735 25.706 56.6651 26.5581 57.3286C27.4101 57.9921 28.4601 58.3507 29.54 58.3471H35.25C36.3335 58.3487 37.3863 57.9871 38.2401 57.32C39.0939 56.6529 39.6995 55.7188 39.96 54.6671L41.24 49.4671C41.7831 49.1896 42.3106 48.8825 42.82 48.5471L47.99 50.0271C49.0295 50.3265 50.1393 50.2684 51.1419 49.8623C52.1445 49.4562 52.9819 48.7255 53.52 47.7871L56.38 42.8371C56.9199 41.8989 57.1296 40.8068 56.9755 39.7354C56.8214 38.6639 56.3124 37.6751 55.53 36.9271ZM40.19 32.3071C40.192 33.8498 39.7364 35.3584 38.881 36.6423C38.0256 37.9261 36.8087 38.9273 35.3841 39.5195C33.9596 40.1117 32.3915 40.2682 30.8781 39.9692C29.3647 39.6702 27.9739 38.9291 26.8816 37.8396C25.7894 36.7502 25.0447 35.3613 24.7418 33.8486C24.4389 32.336 24.5914 30.7674 25.1799 29.3414C25.7685 27.9154 26.7666 26.6959 28.0482 25.8372C29.3298 24.9785 30.8373 24.5191 32.38 24.5171C34.4482 24.5182 36.4317 25.3392 37.8957 26.8001C39.3597 28.2611 40.1847 30.2429 40.19 32.3111V32.3071Z" fill="#999999"/>
  </g>
</svg>
